<svg xmlns="http://www.w3.org/2000/svg" viewBox="0 0 80.01 62.51"><defs><style>.a{fill:#1d1d1b;}</style></defs><title>Idee_Gluehbirne-13</title><path class="a" d="M40,51H33.54c-1.14,0-1.49-.33-1.52-1.48a19.85,19.85,0,0,0-4.52-12A15.81,15.81,0,0,1,24,26,16.26,16.26,0,0,1,37.29,11.73,16,16,0,0,1,55,21.77C57.07,27.6,56,33,52.14,37.8a18.05,18.05,0,0,0-4,9.59c-.08.76-.11,1.52-.15,2.29S47.57,51,46.64,51C44.42,51,42.19,51,40,51Zm5.52-2.49c.07-.62.13-1.18.21-1.75a20.5,20.5,0,0,1,4.65-10.62,13.13,13.13,0,0,0,3-11.2,13.55,13.55,0,1,0-24,10.86,22.15,22.15,0,0,1,4.15,7.68c.47,1.63.73,3.32,1.1,5Z"/><path class="a" d="M40,54.89H35c-.79,0-1.22-.75-1-1.66a1,1,0,0,1,1-.8H45c.74,0,1.2.79,1,1.66a1,1,0,0,1-1,.8H40Z"/><path class="a" d="M40,58.76H35.7c-.57,0-.92-.46-.93-1.21s.35-1.24.94-1.24h8.64c.48,0,.81.42.87,1.09a1.25,1.25,0,0,1-.55,1.29,1.1,1.1,0,0,1-.4,0Z"/><path class="a" d="M17,26.64c1.16,0,2.32,0,3.48,0,.88,0,1.39.42,1.41,1.15a1.31,1.31,0,0,1-1.38,1.33q-3.6,0-7.2,0a1.24,1.24,0,1,1,0-2.48C14.5,26.62,15.73,26.64,17,26.64Z"/><path class="a" d="M63.14,29.13c-1.18,0-2.35,0-3.53,0a1.24,1.24,0,0,1-1.24-1.76,1.14,1.14,0,0,1,1.12-.73c2.42,0,4.83,0,7.25,0A1.2,1.2,0,0,1,68,27.93a1.15,1.15,0,0,1-1.26,1.19C65.53,29.14,64.33,29.13,63.14,29.13Z"/><path class="a" d="M60.15,46.39a1.35,1.35,0,0,1-.76,1.32,1.16,1.16,0,0,1-1.32-.24c-.34-.3-.65-.64-1-1-1.37-1.37-2.75-2.73-4.12-4.11a1.18,1.18,0,0,1-.15-1.74,1.19,1.19,0,0,1,1.85,0c1,.94,1.9,1.89,2.85,2.83.73.73,1.47,1.44,2.18,2.19A3.36,3.36,0,0,1,60.15,46.39Z"/><path class="a" d="M21.32,47.94A1.34,1.34,0,0,1,20,47.17a1.06,1.06,0,0,1,.21-1.26c1.75-1.76,3.5-3.52,5.27-5.26a1.15,1.15,0,0,1,1.67.06,1.16,1.16,0,0,1,0,1.71c-1.11,1.12-2.24,2.23-3.36,3.35-.59.59-1.16,1.19-1.78,1.75A3.48,3.48,0,0,1,21.32,47.94Z"/><path class="a" d="M41.26,4.67c0,1.1,0,2.21,0,3.32a1.25,1.25,0,1,1-2.49,0c0-1.48,0-3,0-4.44V1.62C38.75.52,39.15,0,40,0s1.24.5,1.24,1.61Z"/><path class="a" d="M21.26,7.83a2.6,2.6,0,0,1,.7.38c1.66,1.62,3.3,3.26,4.93,4.9a1.22,1.22,0,0,1-1.72,1.72c-1.66-1.63-3.31-3.28-5-4.93A1.12,1.12,0,0,1,20,8.59,1.31,1.31,0,0,1,21.26,7.83Z"/><path class="a" d="M54.08,15.19a1.33,1.33,0,0,1-1.34-.78A1.14,1.14,0,0,1,53,13.07l3-3c.59-.59,1.17-1.18,1.77-1.76a1.22,1.22,0,0,1,1.82,0A1.19,1.19,0,0,1,59.58,10q-2.38,2.38-4.8,4.76A3,3,0,0,1,54.08,15.19Z"/><path class="a" d="M50.93,26.9v.51a1.18,1.18,0,0,1-1.21,1.35,1.2,1.2,0,0,1-1.26-1.31A8.07,8.07,0,0,0,47.14,23,8.42,8.42,0,0,0,40,19.09a1.2,1.2,0,0,1-1.2-1.62A1.09,1.09,0,0,1,40,16.65a10.46,10.46,0,0,1,6.42,2A10.73,10.73,0,0,1,50.93,26.9Z"/><path class="a" d="M42.5,62.48H37.11a1.07,1.07,0,1,1,0-2.14H42.5a1.07,1.07,0,1,1,0,2.14Z"/></svg>